<?xml version="1.0" encoding="UTF-8" standalone="no"?>
<!-- Created with Inkscape (http://www.inkscape.org/) -->

<svg
   width="978"
   height="326"
   viewBox="0 0 258.7625 86.254169"
   version="1.1"
   id="svg5913"
   inkscape:version="1.1 (c68e22c387, 2021-05-23)"
   sodipodi:docname="clouds.svg"
   xmlns:inkscape="http://www.inkscape.org/namespaces/inkscape"
   xmlns:sodipodi="http://sodipodi.sourceforge.net/DTD/sodipodi-0.dtd"
   xmlns="http://www.w3.org/2000/svg"
   xmlns:svg="http://www.w3.org/2000/svg">
  <sodipodi:namedview
     id="namedview5915"
     pagecolor="#ffffff"
     bordercolor="#666666"
     borderopacity="1.0"
     inkscape:pageshadow="2"
     inkscape:pageopacity="0.0"
     inkscape:pagecheckerboard="0"
     inkscape:document-units="mm"
     showgrid="false"
     units="px"
     inkscape:zoom="0.94867184"
     inkscape:cx="604.52938"
     inkscape:cy="228.21379"
     inkscape:window-width="1920"
     inkscape:window-height="1017"
     inkscape:window-x="2248"
     inkscape:window-y="-8"
     inkscape:window-maximized="1"
     inkscape:current-layer="layer1"
     inkscape:lockguides="true" />
  <defs
     id="defs5910" />
  <g
     inkscape:label="Calque 1"
     inkscape:groupmode="layer"
     id="layer1">
    <path
       id="path11733"
       style="fill:#fffffb;stroke-width:23.6485;fill-opacity:0.50375938"
       d="M 116.27734 79.007812 A 35.777518 29.069235 0 0 0 80.5 108.07812 A 35.777518 29.069235 0 0 0 80.8125 111.83789 A 28.323869 23.106315 0 0 0 53.666016 134.91016 A 28.323869 23.106315 0 0 0 81.990234 158.01758 A 28.323869 23.106315 0 0 0 84.425781 157.92188 A 28.323869 26.087773 0 0 0 111.80469 177.39648 A 28.323869 26.087773 0 0 0 140.12891 151.30859 A 28.323869 26.087773 0 0 0 139.70312 146.79688 A 37.268249 29.069235 0 0 0 158.01758 150.56445 A 37.268249 29.069235 0 0 0 195.28516 121.49414 A 37.268249 29.069235 0 0 0 158.01758 92.425781 A 37.268249 29.069235 0 0 0 147.31836 93.654297 A 35.777518 29.069235 0 0 0 116.27734 79.007812 z "
       transform="scale(0.26458333)" />
    <path
       id="path11741"
       style="fill:#fffffb;stroke-width:23.6485;fill-opacity:0.50375938"
       d="M 366.71875 147.58203 A 28.323869 30.559964 0 0 0 339.41016 170.11719 A 23.851681 19.37949 0 0 0 321.99805 163.98047 A 23.851681 19.37949 0 0 0 302.85938 171.79883 A 26.833139 24.597044 0 0 0 283.23828 163.98047 A 26.833139 24.597044 0 0 0 256.40625 188.57812 A 26.833139 24.597044 0 0 0 281.78516 213.125 A 38.013615 29.069235 0 0 0 281.74805 213.91992 A 38.013615 29.069235 0 0 0 319.76172 242.98828 A 38.013615 29.069235 0 0 0 350.36523 231.15039 A 47.70336 26.833139 0 0 0 380.13672 237.02539 A 47.70336 26.833139 0 0 0 427.83984 210.19336 A 47.70336 26.833139 0 0 0 394.39453 184.60156 A 28.323869 30.559964 0 0 0 395.04297 178.14258 A 28.323869 30.559964 0 0 0 366.71875 147.58203 z "
       transform="scale(0.26458333)" />
    <path
       id="path11765"
       style="fill:#fffffb;stroke-width:23.6485;fill-opacity:0.50375938"
       d="M 939.20703 197.11719 A 21.082106 28.460842 0 0 0 918.76758 218.67969 A 22.136211 20.555054 0 0 0 902.31445 211.875 A 22.136211 20.555054 0 0 0 880.17773 232.42969 A 22.136211 20.555054 0 0 0 894.95508 251.80078 A 16.865684 20.555054 0 0 0 894.93555 252.45898 A 16.865684 20.555054 0 0 0 911.80078 273.01367 A 16.865684 20.555054 0 0 0 917.95508 271.5957 A 25.825579 34.258424 0 0 0 940.78906 289.87891 A 25.825579 34.258424 0 0 0 966.61523 255.62109 A 25.825579 34.258424 0 0 0 964.4043 241.75977 A 15.284527 16.865684 0 0 0 972.93945 226.63281 A 15.284527 16.865684 0 0 0 957.6543 209.76758 A 15.284527 16.865684 0 0 0 956.74414 209.80469 A 21.082106 28.460842 0 0 0 939.20703 197.11719 z "
       transform="scale(0.26458333)" />
    <path
       id="path12749"
       style="fill:#fffffb;fill-opacity:0.503759;stroke:none;stroke-width:23.6485"
       d="M 496.48438 27.933594 A 19.500947 18.446842 0 0 0 481.97266 34.070312 A 20.818578 19.500947 0 0 0 470.92188 31.095703 A 20.818578 19.500947 0 0 0 450.36328 47.558594 A 21.082106 19.237421 0 0 0 447.99414 47.435547 A 21.082106 19.237421 0 0 0 426.91211 66.671875 A 21.082106 19.237421 0 0 0 447.99414 85.910156 A 21.082106 19.237421 0 0 0 448.0293 85.908203 A 19.764475 17.91979 0 0 0 467.23242 99.613281 A 19.764475 17.91979 0 0 0 478.08398 96.660156 A 18.710369 18.183316 0 0 0 492.53125 103.30273 A 18.710369 18.183316 0 0 0 507.93945 95.429688 A 18.183316 16.865684 0 0 0 514.14062 96.451172 A 18.183316 16.865684 0 0 0 532.32227 79.583984 A 18.183316 16.865684 0 0 0 530.91016 73.070312 A 19.237421 17.656264 0 0 0 538.12109 59.292969 A 19.237421 17.656264 0 0 0 518.88281 41.636719 A 19.237421 17.656264 0 0 0 515.4082 41.939453 A 19.500947 18.446842 0 0 0 496.48438 27.933594 z "
       transform="scale(0.26458333)" />
    <path
       id="path12948"
       style="fill:#fffffb;fill-opacity:0.503759;stroke:none;stroke-width:23.6485"
       d="M 811.70312 41.740234 A 26.087773 23.478998 0 0 0 790.73242 51.28125 A 24.969727 24.597044 0 0 0 775.55273 46.212891 A 24.969727 24.597044 0 0 0 756.42578 55.021484 A 25.34241 25.34241 0 0 0 739.40234 48.449219 A 25.34241 25.34241 0 0 0 720.42578 57.015625 A 27.578504 26.833139 0 0 0 712.56836 55.902344 A 27.578504 26.833139 0 0 0 684.99023 82.736328 A 27.578504 26.833139 0 0 0 686.49023 91.412109 A 25.34241 22.733632 0 0 0 674.55469 110.6875 A 25.34241 22.733632 0 0 0 698.17773 133.36328 A 25.34241 26.087773 0 0 0 718.95508 153.94727 A 25.34241 24.597044 0 0 0 742.38281 169.19727 A 25.34241 24.597044 0 0 0 758.25195 163.77539 A 26.460456 24.597044 0 0 0 772.57031 167.70703 A 26.460456 24.597044 0 0 0 798.20898 149.13477 A 24.597044 24.224363 0 0 0 806.48438 150.56445 A 24.597044 24.224363 0 0 0 825.7207 141.43359 A 24.597044 24.969727 0 0 0 847.48047 116.65039 A 24.597044 24.969727 0 0 0 846.32227 109.08008 A 26.833139 23.478998 0 0 0 864.62305 86.835938 A 26.833139 23.478998 0 0 0 837.79102 63.355469 A 26.833139 23.478998 0 0 0 837.70703 63.357422 A 26.087773 23.478998 0 0 0 811.70312 41.740234 z "
       transform="scale(0.26458333)" />
  </g>
</svg>
