<?xml version="1.0" encoding="UTF-8" standalone="no"?>
<!-- Created with Inkscape (http://www.inkscape.org/) -->

<svg
   width="978"
   height="326"
   viewBox="0 0 258.7625 86.254169"
   version="1.1"
   id="svg5913"
   inkscape:version="1.1 (c68e22c387, 2021-05-23)"
   sodipodi:docname="clouds.svg"
   xmlns:inkscape="http://www.inkscape.org/namespaces/inkscape"
   xmlns:sodipodi="http://sodipodi.sourceforge.net/DTD/sodipodi-0.dtd"
   xmlns="http://www.w3.org/2000/svg"
   xmlns:svg="http://www.w3.org/2000/svg">
  <sodipodi:namedview
     id="namedview5915"
     pagecolor="#ffffff"
     bordercolor="#666666"
     borderopacity="1.0"
     inkscape:pageshadow="2"
     inkscape:pageopacity="0.0"
     inkscape:pagecheckerboard="0"
     inkscape:document-units="mm"
     showgrid="false"
     units="px"
     inkscape:zoom="0.94867184"
     inkscape:cx="451.68411"
     inkscape:cy="160.75106"
     inkscape:window-width="1920"
     inkscape:window-height="1017"
     inkscape:window-x="2248"
     inkscape:window-y="-8"
     inkscape:window-maximized="1"
     inkscape:current-layer="layer1"
     inkscape:lockguides="true" />
  <defs
     id="defs5910">
    <filter
       inkscape:collect="always"
       style="color-interpolation-filters:sRGB"
       id="filter1268"
       x="-0.049002054"
       y="-0.1597608"
       width="1.0980041"
       height="1.3195216">
      <feGaussianBlur
         inkscape:collect="always"
         stdDeviation="1.0719875"
         id="feGaussianBlur1270" />
    </filter>
    <filter
       inkscape:collect="always"
       style="color-interpolation-filters:sRGB"
       id="filter1839"
       x="-0.050130442"
       y="-0.14883812"
       width="1.1002609"
       height="1.2976762">
      <feGaussianBlur
         inkscape:collect="always"
         stdDeviation="1.22628"
         id="feGaussianBlur1841" />
    </filter>
    <filter
       inkscape:collect="always"
       style="color-interpolation-filters:sRGB"
       id="filter2273"
       x="-0.15456707"
       y="-0.25335807"
       width="1.3091341"
       height="1.5067161">
      <feGaussianBlur
         inkscape:collect="always"
         stdDeviation="2.0927195"
         id="feGaussianBlur2275" />
    </filter>
    <filter
       inkscape:collect="always"
       style="color-interpolation-filters:sRGB"
       id="filter2958"
       x="-0.14670216"
       y="-0.27776744"
       width="1.2934043"
       height="1.5555349">
      <feGaussianBlur
         inkscape:collect="always"
         stdDeviation="2.2780647"
         id="feGaussianBlur2960" />
    </filter>
    <filter
       inkscape:collect="always"
       style="color-interpolation-filters:sRGB"
       id="filter3165"
       x="-0.15776077"
       y="-0.24522095"
       width="1.3155215"
       height="1.4904419">
      <feGaussianBlur
         inkscape:collect="always"
         stdDeviation="2.0293755"
         id="feGaussianBlur3167" />
    </filter>
  </defs>
  <g
     inkscape:label="Calque 1"
     inkscape:groupmode="layer"
     id="layer1">
    <rect
       style="fill:#9efffb;fill-opacity:0.99624062;stroke-width:2.2838;opacity:0"
       id="rect848"
       width="258.76251"
       height="86.254166"
       x="0"
       y="0" />
    <path
       d="m 72.727273,55.807927 c 0.5431,-0.369049 0.98746,-0.785768 0.98746,-0.926042 0,-0.140274 0.32742,-0.255709 0.7276,-0.256521 1.14729,-0.0024 2.59114,-0.484783 3.08545,-1.030986 0.60657,-0.670256 2.46162,-0.475351 3.16156,0.332179 0.90858,1.048242 1.84833,1.49049 3.17103,1.492289 1.52542,0.0021 2.64722,-0.587951 3.38592,-1.780886 0.51651,-0.834112 0.5504,-0.846262 1.2915,-0.463021 1.64307,0.849662 3.81767,0.200771 4.97796,-1.4854 0.51038,-0.741696 0.60077,-1.156097 0.5162,-2.366386 -0.15994,-2.288767 -1.45792,-3.624796 -3.66517,-3.7726 -1.05446,-0.07061 -1.1214,-0.124079 -1.21398,-0.96981 -0.14828,-1.35442 -0.91655,-2.44643 -2.13398,-3.033183 -0.83774,-0.403759 -1.13143,-0.71714 -1.24753,-1.331169 -0.25149,-1.330047 -1.09042,-2.418448 -2.32466,-3.015932 -2.04405,-0.989508 -3.97381,-0.599893 -5.38606,1.087432 -0.66344,0.792657 -0.97409,0.943107 -2.1754,1.053552 -1.06301,0.09773 -1.58643,0.306086 -2.16752,0.862804 -0.76608,0.733957 -0.76608,0.733957 -1.89822,0.280963 -2.1109,-0.844616 -4.55371,0.124429 -5.64798,2.240511 -0.26495,0.512355 -0.70194,0.803285 -1.51355,1.007649 -1.23762,0.311637 -2.38664,1.329868 -2.83259,2.510174 -0.91122,2.411743 0.66868,5.095864 3.28878,5.587399 0.76032,0.142637 0.88167,0.284988 1.02915,1.207315 0.17744,1.109631 1.45221,2.804057 2.39765,3.186954 1.18231,0.478835 3.15733,0.281969 4.18638,-0.417285 z"
       style="fill:#ffffff;fill-opacity:1;stroke-width:0.0700042;filter:url(#filter2273);opacity:0.35"
       id="path2415"
       transform="matrix(0.7932269,0,0,0.7932269,12.324448,7.1754901)" />
    <path
       d="m 176.73208,45.028217 c 0.81715,-0.32696 1.50929,-0.38977 2.84963,-0.25862 4.92644,0.48206 6.37489,0.50354 6.98705,0.10361 0.44916,-0.29344 0.75731,-0.32606 1.20137,-0.12719 0.4177,0.18706 0.92243,0.17005 1.67887,-0.0566 0.92244,-0.27637 1.14942,-0.2627 1.54235,0.0929 0.42681,0.38626 0.99266,0.44734 3.85444,0.41608 0.43657,-0.005 1.82079,-0.007 3.07606,-0.006 1.43723,0.002 2.6342,-0.14396 3.23265,-0.39401 0.52269,-0.21839 1.43296,-0.39707 2.02284,-0.39707 0.89179,0 1.12411,-0.11326 1.37874,-0.67212 0.48885,-1.072908 0.002,-2.086876 -1.04996,-2.188918 -0.57485,-0.05573 -0.85512,-0.222345 -0.85512,-0.508333 0,-0.59562 -0.78079,-1.393132 -1.36392,-1.393132 -0.26849,0 -0.48816,-0.177586 -0.48816,-0.394631 0,-0.217049 -0.22927,-0.537814 -0.50948,-0.712809 -0.49479,-0.309002 -0.49059,-0.340625 0.14573,-1.096849 0.50858,-0.604417 0.6374,-1.021104 0.57563,-1.861968 -0.0687,-0.935236 -0.1875,-1.120127 -0.86914,-1.352791 -1.20391,-0.410929 -1.59418,-0.948414 -1.62811,-2.242256 -0.0252,-0.960604 -0.18136,-1.307925 -0.86125,-1.915409 -0.49021,-0.438004 -1.13355,-0.742037 -1.57017,-0.742037 -0.73088,0 -1.73465,0.7038 -1.95992,1.374217 -0.095,0.282633 -0.28757,0.284054 -1.05744,0.0078 -1.24884,-0.448117 -2.20251,-0.02622 -2.5892,1.145445 -0.21872,0.662741 -0.60613,1.019368 -1.67592,1.542772 -2.03429,0.99528 -3.08198,2.287796 -3.08198,3.802152 0,0.701138 -0.98211,1.931789 -1.52337,1.908876 -0.38074,-0.01611 -1.04435,-1.193948 -1.22734,-2.178399 -0.35342,-1.901359 -2.67882,-3.470537 -4.45745,-3.007889 -0.32838,0.08542 -1.18392,0.690713 -1.90121,1.345102 -0.99603,0.908688 -1.38638,1.121569 -1.65213,0.901015 -0.19138,-0.15883 -0.67607,-0.223674 -1.07708,-0.144098 -0.93039,0.184624 -2.20551,-0.647636 -2.8631,-1.868704 -2.18293,-4.053448 -8.31707,-1.68887 -8.31707,3.206049 0,0.513453 -0.13518,0.696907 -0.51355,0.696907 -0.28245,0 -0.58714,-0.119062 -0.67707,-0.264583 -0.25266,-0.408821 -1.22765,-0.313097 -1.76511,0.173294 -0.28891,0.261464 -0.48385,0.802122 -0.48385,1.341954 0,0.904073 0,0.904073 -1.41589,0.72717 -1.32558,-0.165621 -1.45215,-0.13081 -1.98437,0.545809 -0.31267,0.397491 -0.56849,0.872511 -0.56849,1.0556 0,0.386186 -0.58445,0.654084 -1.42696,0.654084 -0.32446,0 -0.87709,0.267534 -1.22807,0.594516 -0.63813,0.594524 -0.63813,0.594524 1.07459,0.944274 0.942,0.19236 3.32007,0.38886 5.28461,0.43666 2.05255,0.0499 4.47221,0.28138 5.68853,0.54409 1.59933,0.34544 2.73102,0.41641 4.63022,0.29035 1.38244,-0.0918 2.87072,-0.0574 3.30728,0.0764 1.25504,0.38458 2.93892,0.32596 4.11129,-0.14313 z"
       style="mix-blend-mode:normal;fill:#ffffff;fill-opacity:1;stroke-width:0.0700042;filter:url(#filter1268);opacity:0.4"
       id="path2147" />
    <path
       d="m 103.52156,36.018447 c 1.87128,-0.326324 2.48331,-0.341789 3.20458,-0.08097 0.70668,0.255537 1.16452,0.252426 2.208,-0.015 0.72404,-0.185567 1.54403,-0.265159 1.8222,-0.176874 0.27817,0.08829 0.82054,0.04085 1.20526,-0.105426 0.4814,-0.183025 1.10618,-0.172074 2.00382,0.03513 3.59639,0.830146 6.61523,-2.745319 5.04924,-5.980231 -1.22836,-2.537445 -4.1695,-3.066256 -6.2936,-1.131574 -0.59531,0.542219 -0.59531,0.542219 -0.59531,-0.0451 0,-0.745925 -1.12468,-1.886179 -1.86041,-1.886179 -0.30885,0 -0.91408,0.352528 -1.34495,0.7834 -0.63087,0.630869 -0.89996,0.739079 -1.3821,0.55577 -1.4512,-0.551743 -3.35004,0.800269 -3.35004,2.385298 0,0.499343 -0.13599,0.773449 -0.38373,0.773449 -0.21105,0 -0.47894,0.151686 -0.59531,0.337082 -0.11637,0.185393 -0.52817,0.538223 -0.91511,0.784066 -0.68102,0.432692 -0.71668,0.426897 -1.1151,-0.181176 -0.70631,-1.077965 -2.35791,-1.402045 -3.97763,-0.780502 -0.29529,0.113315 -0.42146,0.0098 -0.42146,-0.345856 0,-0.27917 -0.24338,-0.768826 -0.54085,-1.088124 -0.54086,-0.580542 -0.54086,-0.580542 0.22633,-1.703537 1.02771,-1.504328 1.46471,-2.931655 1.24924,-4.080219 -0.32494,-1.732058 -1.93269,-2.677872 -3.30426,-1.943833 -0.42295,0.226356 -0.50362,0.119959 -0.65201,-0.859896 -0.46705,-3.084111 -3.03837,-5.101215 -5.8342,-4.576715 -1.90847,0.358031 -3.28003,2.338422 -2.96481,4.280892 0.10679,0.658077 0.048,0.897401 -0.22061,0.897401 -0.20143,0 -0.91443,0.291475 -1.58444,0.647724 -1.01886,0.541731 -1.24287,0.583424 -1.36898,0.254796 -0.0829,-0.216109 -0.48763,-0.567116 -0.89933,-0.780016 -2.65797,-1.374486 -5.53084,1.276385 -5.53585,5.108057 -10e-4,1.061629 -0.0399,1.11989 -0.64001,0.969259 -0.45963,-0.115361 -0.81069,0.01191 -1.25306,0.454274 -0.33799,0.337993 -0.81988,0.579744 -1.07087,0.537224 -0.25098,-0.04252 -0.682,0.04346 -0.95781,0.19107 -0.39998,0.214064 -0.61469,0.138171 -1.06088,-0.374993 -0.67551,-0.776909 -1.58883,-1.038874 -2.81801,-0.808278 -1.21436,0.227816 -2.19149,1.08832 -3.85913,3.39853 -0.75899,1.051452 -1.73554,2.230536 -2.17011,2.62019 l -0.79012,0.70846 1.1577,0.332917 c 1.43067,0.411418 16.88932,0.569135 18.93019,0.193138 1.05164,-0.193746 2.21513,-0.127394 5.02709,0.286689 4.77649,0.703377 4.9569,0.716495 10.56941,0.768567 3.29207,0.03054 5.51864,-0.08189 7.10703,-0.358884 z"
       style="mix-blend-mode:normal;fill:#ffffff;fill-opacity:1;stroke-width:0.0700042;filter:url(#filter1839);opacity:0.45"
       id="path2403"
       transform="matrix(-1,0,0,1,135.54477,-9.7614541)" />
    <path
       d="m 136.80256,26.487847 c 0.51315,-0.21441 1.23976,-0.631133 1.61468,-0.926046 0.52162,-0.410313 1.07497,-0.536207 2.35681,-0.536207 1.0102,0 2.03841,-0.173236 2.59033,-0.436428 0.85037,-0.405513 0.98034,-0.405513 1.8349,0 1.87661,0.890511 4.69729,0.292624 5.47499,-1.160507 0.24644,-0.460489 0.32457,-0.465558 1.24544,-0.08079 1.95607,0.817298 4.51352,-0.125801 5.49666,-2.026978 0.57667,-1.11515 0.50189,-3.047357 -0.16376,-4.231728 -0.81005,-1.441285 -2.27707,-2.187918 -4.07778,-2.07537 -1.35707,0.08482 -1.45588,0.04854 -1.74021,-0.638895 -0.43614,-1.054473 -1.90752,-2.244696 -3.20932,-2.596068 -1.06854,-0.288409 -2.40736,-0.146537 -3.65481,0.387294 -0.29251,0.125176 -0.53376,-0.0836 -0.84092,-0.727718 -0.67554,-1.416613 -2.02005,-2.7876868 -3.48758,-3.5564598 -1.12858,-0.591217 -1.6896,-0.706327 -3.4634,-0.710613 -1.79217,-0.0043 -2.34944,0.109191 -3.63507,0.740505 -2.2107,1.085576 -4.17014,3.7450398 -4.17014,5.6599488 0,0.621451 -0.0533,0.643237 -1.12448,0.459206 -2.66591,-0.458031 -4.3188,0.03324 -5.86315,1.742654 -3.24683,3.593854 -0.68653,9.251948 4.18652,9.251948 0.79931,0 1.75147,-0.135858 2.11591,-0.301908 0.58656,-0.267256 0.77543,-0.202854 1.64554,0.561104 0.5406,0.474658 1.34935,1.022576 1.79723,1.217596 1.09267,0.47579 3.91746,0.46769 5.07161,-0.0145 z"
       style="opacity:0.35;fill:#ffffff;fill-opacity:1;stroke-width:0.0700042;filter:url(#filter2958)"
       id="path2541"
       transform="matrix(0.62401518,0,0,0.62401518,44.516812,1.8932836)" />
    <path
       d="m 239.91856,64.501303 c 1.4943,-0.788903 2.63872,-2.401853 2.81523,-3.967808 0.13566,-1.203587 0.13566,-1.203587 1.09142,-0.691327 1.17304,0.628713 2.18173,0.649589 3.40225,0.07042 1.28047,-0.607624 1.92478,-1.758569 1.92599,-3.440459 7.9e-4,-1.071931 -0.14129,-1.537857 -0.65511,-2.148496 -0.84786,-1.007616 -1.96982,-1.460247 -3.30419,-1.332995 -0.96941,0.09245 -1.06679,0.04556 -1.06679,-0.513707 0,-0.801362 -0.57443,-1.886469 -1.4136,-2.670332 -0.88533,-0.826979 -2.72782,-1.045853 -3.89644,-0.46287 -0.4737,0.236316 -0.88094,0.399381 -0.90496,0.362371 -0.024,-0.03701 -0.19975,-0.459121 -0.39051,-0.938019 -0.55533,-1.394161 -1.32825,-2.194373 -2.76634,-2.864007 -2.23172,-1.039188 -4.32112,-0.755573 -6.1846,0.839502 -0.73046,0.625248 -1.25904,1.385271 -1.56757,2.253951 -0.35353,0.995403 -0.56157,1.265452 -0.86501,1.122831 -0.21973,-0.10328 -1.11389,-0.230007 -1.98701,-0.281617 -2.86351,-0.169259 -5.14145,1.5982 -5.72568,4.442553 -0.39935,1.944277 0.0142,3.391808 1.39795,4.892987 1.11736,1.212186 2.17192,1.700557 3.96011,1.833926 0.86527,0.06453 1.17141,0.234029 1.55146,0.858967 0.53249,0.875612 1.97563,1.662258 3.04949,1.662258 0.98403,0 2.47161,-0.748379 2.95548,-1.486855 0.40231,-0.614006 0.40231,-0.614006 1.23696,0.619781 1.61483,2.387071 4.79456,3.183554 7.34147,1.838949 z"
       style="opacity:0.35;fill:#ffffff;fill-opacity:1;stroke-width:0.0700042;filter:url(#filter3165)"
       id="path2667" />
  </g>
</svg>
